<svg width="35" height="15" viewBox="0 0 35 15" fill="none" xmlns="http://www.w3.org/2000/svg">
<rect y="0.875" width="34.6719" height="14" rx="3" fill="#CCCCCC"/>
<path d="M5.27 6.055V11.875H6.84V6.055H8.98V4.735H3.13V6.055H5.27ZM9.80328 4.735V11.875H15.2233V10.555H11.3733V8.805H14.8333V7.585H11.3733V6.055H15.1433V4.735H9.80328ZM18.0877 9.115L19.0177 6.495H19.0377L19.9377 9.115H18.0877ZM18.2377 4.735L15.5377 11.875H17.1177L17.6777 10.285H20.3477L20.8877 11.875H22.5177L19.8477 4.735H18.2377ZM23.1334 4.735V11.875H24.6034V6.865H24.6234L26.3734 11.875H27.5834L29.3334 6.815H29.3534V11.875H30.8234V4.735H28.6134L27.0334 9.645H27.0134L25.3434 4.735H23.1334Z" fill="white"/>
</svg>
